<svg xmlns="http://www.w3.org/2000/svg" width="163.306" height="145.779" viewBox="0 0 163.306 145.779"><defs><style>.a{fill:#04d361;}.b{fill:#fff;}.c{opacity:0.5;}</style></defs><g transform="translate(0 0)"><g transform="translate(42.948 0)"><g transform="translate(0 0)"><path class="a" d="M1574.072-295.656c-8.11-4.451-16.319-9-24.43-13.451a5.674,5.674,0,0,0-5.341,0c-8.11,4.451-16.22,9-24.331,13.451a5.051,5.051,0,0,0-2.67,4.253v27.1a4.915,4.915,0,0,0,2.769,4.352c2.275,1.187,4.451,2.473,6.726,3.659l13.253,7.319,4.055,2.275a3.51,3.51,0,0,0,.89.4l.4.2h.1a5.7,5.7,0,0,0,4.055-.4c8.11-4.451,16.22-9,24.331-13.451a4.981,4.981,0,0,0,2.769-4.352v-27.1A5.084,5.084,0,0,0,1574.072-295.656Zm-35.111,30.364-6.33,5.835a.364.364,0,0,1-.3.1h-.1a.19.19,0,0,1-.1-.3l2.275-8.308a2.76,2.76,0,0,1,1.78-1.978l.1-.1a.869.869,0,0,1,.693.1c.4.3.692.495,1.088.791a7.357,7.357,0,0,0,1.187.692.669.669,0,0,1,.4.593l.2.2A2.794,2.794,0,0,1,1538.96-265.293Zm6.528-5.737c-.1,0-.1.1-.2.1l-1.978-.2a.727.727,0,0,0-.594.2l-2.176,1.978a.363.363,0,0,1-.3.1,14.752,14.752,0,0,1-2.967-1.78c-.1-.1-.2-.2-.1-.3l.692-2.868a.655.655,0,0,0-.1-.593l-1.088-1.681c0-.1-.1-.1-.1-.2,0-.2.1-.4.1-.692v-.1h0s.1-.1.1,0c.89.593,4.649,2.868,4.649,2.868s3.759,2.275,4.649,2.868a.364.364,0,0,1,.1.3Zm13.253-18.1.1.1,1.978.3h.1c.4.1.89.594.2,1.484l-8.308,11.275a.6.6,0,0,1-.4.1l-3.363-2.077a1.067,1.067,0,0,0-1.088,0l-1.088.692a1.072,1.072,0,0,1-1.088,0,1.541,1.541,0,0,0-2.077.2,4.162,4.162,0,0,1-4.847.2l-4.451-2.769-.2-.2h0a1.286,1.286,0,0,1-.1-1.879h0a1.462,1.462,0,0,1,1.978-.495l.89.495h.1c.1.1.2,0,.2-.1l.2-1.187c0-.1,0-.2-.1-.2l-.2-.1a.916.916,0,0,1-.3-1.187.8.8,0,0,1,1.088-.3l6.033,3.659h.1c.1.1.2,0,.3-.1l6.231-8.506a1.1,1.1,0,0,1,1.088-.4l1.582.2,1.088.2c0,.1.1,0,.1,0,.1-.1.1-.1,0-.1a.938.938,0,0,1-.2-1.286l2.077-2.868a1.146,1.146,0,0,1,.989-.4l3.956.593a.514.514,0,0,1,.4.2l.1.1c.2.2.1.495-.1.692,0,0-1.978,2.67-2.671,3.66v.1C1558.543-289.327,1558.543-289.228,1558.741-289.129Z" transform="translate(-1508.102 312.47)"/><path class="b" d="M1555.462-306.071c3.066-2.374,4.748-2.868,7.319-2.868a5.035,5.035,0,0,1,2.176.495c2.275,1.286,3.264,5.143,2.571,10.682l3.264,1.78c1.088-7.912-.4-13.352-4.253-15.528a7.835,7.835,0,0,0-3.956-.989c-3.462,0-6.231.989-10.583,4.451C1553.286-307.357,1554.375-306.665,1555.462-306.071Z" transform="translate(-1508.483 312.5)"/><path class="b" d="M1517.2-271.2c-4.55-2.176-5.638-3.956-5.638-6.429,0-2.571,2.571-5.044,7.22-7.22V-288.8c-6.923,2.868-10.781,6.824-10.781,11.077,0,4.352,2.275,7.418,9.2,10.286Z" transform="translate(-1508 312.24)"/><path class="b" d="M1526.559-299.344c-.594-5.44.4-7.715,2.769-9a3.528,3.528,0,0,1,2.176-.495c2.572,0,5.539,1.385,8.6,3.758l3.264-1.78c-4.253-3.462-8.506-5.44-11.968-5.44a7.839,7.839,0,0,0-3.956.989c-3.857,2.275-5.44,6.033-4.253,13.945C1524.383-298.157,1525.471-298.75,1526.559-299.344Z" transform="translate(-1508.162 312.498)"/><path class="b" d="M1577.183-287.8v3.758c4.55,2.176,5.638,3.956,5.638,6.429,0,2.571-2.571,5.044-7.22,7.22v3.956c6.923-2.868,10.781-6.824,10.781-11.077C1586.381-281.866,1584.205-284.932,1577.183-287.8Z" transform="translate(-1508.742 312.229)"/><path class="b" d="M1538.926-249.213c-3.067,2.374-4.748,2.868-7.319,2.868a5.035,5.035,0,0,1-2.176-.495c-2.374-1.286-3.264-5.242-2.572-10.682-1.088-.593-2.275-1.187-3.363-1.879-1.088,7.813.4,13.253,4.154,15.429a7.839,7.839,0,0,0,3.956.989c3.462.1,6.33-.89,10.682-4.352Z" transform="translate(-1508.167 311.918)"/><path class="b" d="M1567.712-255.821c.594,5.44-.495,7.715-2.769,9a3.528,3.528,0,0,1-2.176.495c-2.571,0-5.538-1.385-8.7-3.758-1.088.593-2.176,1.187-3.363,1.78,4.352,3.561,8.506,5.539,12.066,5.539a7.84,7.84,0,0,0,3.957-.989c3.857-2.275,5.539-6.033,4.253-13.945C1569.987-257.107,1568.8-256.513,1567.712-255.821Z" transform="translate(-1508.468 311.9)"/></g></g><g class="c" transform="translate(34.249 137.326)"><g transform="translate(0 0)"><path class="b" d="M15.016-3.191v-8.228H17.9a3.784,3.784,0,0,1,2.272.574,1.961,1.961,0,0,1,.774,1.681A1.859,1.859,0,0,1,20.632-8.1a1.8,1.8,0,0,1-.865.675,1.737,1.737,0,0,1,1,.639,1.888,1.888,0,0,1,.364,1.175,2.171,2.171,0,0,1-.757,1.8,3.409,3.409,0,0,1-2.159.622Zm1.7-3.583v2.221h1.452a1.4,1.4,0,0,0,.935-.285.979.979,0,0,0,.336-.788,1.033,1.033,0,0,0-1.17-1.147Zm0-1.2h1.254q1.283-.023,1.283-1.023a.945.945,0,0,0-.325-.805,1.709,1.709,0,0,0-1.026-.246H16.711Zm17.148.853a4.967,4.967,0,0,1-.429,2.13A3.234,3.234,0,0,1,32.2-3.575a3.4,3.4,0,0,1-1.834.5,3.423,3.423,0,0,1-1.825-.492,3.266,3.266,0,0,1-1.243-1.4,4.825,4.825,0,0,1-.446-2.1V-7.48a4.941,4.941,0,0,1,.438-2.139,3.261,3.261,0,0,1,1.238-1.418,3.4,3.4,0,0,1,1.828-.494,3.4,3.4,0,0,1,1.828.494,3.261,3.261,0,0,1,1.238,1.418,4.927,4.927,0,0,1,.438,2.133Zm-1.718-.373a3.462,3.462,0,0,0-.463-1.966,1.51,1.51,0,0,0-1.322-.672,1.511,1.511,0,0,0-1.317.664,3.423,3.423,0,0,0-.469,1.947v.4a3.506,3.506,0,0,0,.463,1.955,1.506,1.506,0,0,0,1.334.7,1.493,1.493,0,0,0,1.311-.67,3.485,3.485,0,0,0,.463-1.952Zm14.407.373a4.967,4.967,0,0,1-.429,2.13,3.234,3.234,0,0,1-1.229,1.413,3.4,3.4,0,0,1-1.834.5,3.423,3.423,0,0,1-1.825-.492,3.266,3.266,0,0,1-1.243-1.4,4.825,4.825,0,0,1-.446-2.1V-7.48a4.941,4.941,0,0,1,.438-2.139,3.261,3.261,0,0,1,1.238-1.418,3.4,3.4,0,0,1,1.828-.494,3.4,3.4,0,0,1,1.828.494A3.261,3.261,0,0,1,46.11-9.618a4.927,4.927,0,0,1,.438,2.133ZM44.83-7.491a3.462,3.462,0,0,0-.463-1.966,1.51,1.51,0,0,0-1.322-.672,1.511,1.511,0,0,0-1.317.664,3.423,3.423,0,0,0-.469,1.947v.4a3.506,3.506,0,0,0,.463,1.955,1.506,1.506,0,0,0,1.334.7,1.493,1.493,0,0,0,1.311-.67A3.485,3.485,0,0,0,44.83-7.09Zm13.362-2.554h-2.52v6.854h-1.7v-6.854H51.49v-1.373h6.7ZM70.158-5.931a2.911,2.911,0,0,1-.98,2.091,3.443,3.443,0,0,1-2.331.763,3.1,3.1,0,0,1-2.489-1.065,4.368,4.368,0,0,1-.907-2.924v-.5a4.932,4.932,0,0,1,.418-2.091,3.134,3.134,0,0,1,1.2-1.387,3.348,3.348,0,0,1,1.805-.483,3.354,3.354,0,0,1,2.294.763,3.129,3.129,0,0,1,1.006,2.142h-1.7a1.718,1.718,0,0,0-.444-1.156,1.643,1.643,0,0,0-1.161-.359,1.44,1.44,0,0,0-1.269.607,3.4,3.4,0,0,0-.432,1.885v.622a3.644,3.644,0,0,0,.4,1.95,1.414,1.414,0,0,0,1.274.616,1.674,1.674,0,0,0,1.173-.359,1.621,1.621,0,0,0,.444-1.11ZM80.615-4.886H77.643l-.565,1.7h-1.8l3.063-8.228h1.571l3.08,8.228h-1.8ZM78.1-6.259h2.057l-1.034-3.08Zm12.571-5.159,2.113,5.967,2.1-5.967h2.226v8.228h-1.7V-5.44l.17-3.882L93.361-3.191H92.2L89.982-9.316l.17,3.876v2.249h-1.7v-8.228ZM104.988-6.09v2.9h-1.7v-8.228h3.21a3.713,3.713,0,0,1,1.63.339,2.5,2.5,0,0,1,1.082.963,2.686,2.686,0,0,1,.379,1.421,2.362,2.362,0,0,1-.828,1.907,3.448,3.448,0,0,1-2.291.7Zm0-1.373H106.5a1.489,1.489,0,0,0,1.026-.316,1.151,1.151,0,0,0,.353-.9,1.357,1.357,0,0,0-.356-.978,1.33,1.33,0,0,0-.983-.384h-1.554Z" transform="translate(-15.016 11.531)"/></g></g><path class="b" d="M-122.74-31.289a11.058,11.058,0,0,1-4.863,3.2,20.366,20.366,0,0,1-6.965,1.136,13.8,13.8,0,0,1-7.04-1.752,11.685,11.685,0,0,1-4.672-5.086,17.9,17.9,0,0,1-1.688-7.836v-2.1a19.011,19.011,0,0,1,1.561-8.017,11.546,11.546,0,0,1,4.5-5.182,12.968,12.968,0,0,1,6.891-1.794q5.5,0,8.6,2.623a11.208,11.208,0,0,1,3.674,7.634h-6.2a6.165,6.165,0,0,0-1.879-3.886,6,6,0,0,0-4-1.232,5.649,5.649,0,0,0-4.948,2.442q-1.7,2.442-1.72,7.263v1.975q0,4.863,1.848,7.348a6.326,6.326,0,0,0,5.415,2.485q3.589,0,5.118-1.529v-5.33h-5.8v-4.693h12.168Zm3.8-7.794a13.627,13.627,0,0,1,1.317-6.095,9.639,9.639,0,0,1,3.791-4.141,11.059,11.059,0,0,1,5.744-1.465,10.463,10.463,0,0,1,7.592,2.846,11.421,11.421,0,0,1,3.281,7.73l.042,1.571a12.01,12.01,0,0,1-2.952,8.484,10.26,10.26,0,0,1-7.921,3.2,10.312,10.312,0,0,1-7.932-3.185q-2.962-3.185-2.962-8.664Zm6.137.446a8.566,8.566,0,0,0,1.232,5,4.065,4.065,0,0,0,3.525,1.731,4.075,4.075,0,0,0,3.483-1.71q1.253-1.71,1.253-5.468a8.48,8.48,0,0,0-1.253-4.969,4.075,4.075,0,0,0-3.525-1.763,4.008,4.008,0,0,0-3.483,1.752A9.531,9.531,0,0,0-112.8-38.636Zm35.847,3.143a3.269,3.269,0,0,0-1.274-2.771A16.712,16.712,0,0,0-82.816-40.3a32.517,32.517,0,0,1-5.245-2.113q-5.267-2.846-5.267-7.666a7.467,7.467,0,0,1,1.412-4.47,9.212,9.212,0,0,1,4.056-3.069,15.267,15.267,0,0,1,5.935-1.1,13.9,13.9,0,0,1,5.9,1.2A9.4,9.4,0,0,1-72-54.139a8.863,8.863,0,0,1,1.433,4.969h-6.371a4.169,4.169,0,0,0-1.338-3.3,5.5,5.5,0,0,0-3.759-1.179,5.876,5.876,0,0,0-3.631.987,3.115,3.115,0,0,0-1.3,2.6,2.983,2.983,0,0,0,1.518,2.527,17.155,17.155,0,0,0,4.47,1.911q5.436,1.635,7.921,4.056a8.078,8.078,0,0,1,2.485,6.031,7.441,7.441,0,0,1-3.037,6.3,13.294,13.294,0,0,1-8.176,2.283,15.788,15.788,0,0,1-6.5-1.306,10.283,10.283,0,0,1-4.47-3.578,9.164,9.164,0,0,1-1.54-5.267h6.392q0,5.118,6.116,5.118a5.949,5.949,0,0,0,3.546-.924A3.005,3.005,0,0,0-76.955-35.493Zm17.647-20.514v5.649h3.929v4.5h-3.929v11.468a2.738,2.738,0,0,0,.488,1.826,2.453,2.453,0,0,0,1.869.552,9.787,9.787,0,0,0,1.805-.149v4.651a12.634,12.634,0,0,1-3.716.552q-6.456,0-6.583-6.519V-45.857H-68.8v-4.5h3.355v-5.649Zm20.663,28.626a6.815,6.815,0,0,1-.616-2.06,7.426,7.426,0,0,1-5.8,2.485,8.158,8.158,0,0,1-5.6-1.954,6.283,6.283,0,0,1-2.219-4.927,6.493,6.493,0,0,1,2.708-5.606q2.708-1.954,7.826-1.975h2.824v-1.317a3.786,3.786,0,0,0-.818-2.548,3.216,3.216,0,0,0-2.58-.956,3.657,3.657,0,0,0-2.432.743,2.525,2.525,0,0,0-.881,2.039h-6.137a6.165,6.165,0,0,1,1.232-3.7,8.142,8.142,0,0,1,3.483-2.665,12.693,12.693,0,0,1,5.054-.966,10.028,10.028,0,0,1,6.742,2.134,7.466,7.466,0,0,1,2.5,6v9.96a10.985,10.985,0,0,0,.913,4.948v.361Zm-5.075-4.268a5.286,5.286,0,0,0,2.506-.605,3.975,3.975,0,0,0,1.7-1.625v-3.95h-2.293q-4.608,0-4.906,3.185l-.021.361a2.457,2.457,0,0,0,.807,1.89A3.135,3.135,0,0,0-43.721-31.65Zm24.634-.255a4.025,4.025,0,0,0,2.761-.934,3.274,3.274,0,0,0,1.1-2.485h5.755a7.872,7.872,0,0,1-1.274,4.279,8.408,8.408,0,0,1-3.43,3.016,10.734,10.734,0,0,1-4.81,1.072,9.975,9.975,0,0,1-7.772-3.132Q-29.6-33.221-29.6-38.743v-.4a12.253,12.253,0,0,1,2.824-8.473,9.859,9.859,0,0,1,7.751-3.164,9.665,9.665,0,0,1,6.912,2.453A8.684,8.684,0,0,1-9.467-41.8h-5.755a4.183,4.183,0,0,0-1.1-2.9,3.692,3.692,0,0,0-2.8-1.115,3.7,3.7,0,0,0-3.239,1.561q-1.094,1.561-1.094,5.065v.637q0,3.546,1.083,5.1A3.745,3.745,0,0,0-19.087-31.9ZM2.383-36.6.174-34.389v7.008H-5.963V-60H.174v18.072l1.189-1.529,5.882-6.9h7.369l-8.3,9.577,9.025,13.4H8.287Z" transform="translate(147.969 149.781)"/></g></svg>