<svg xmlns="http://www.w3.org/2000/svg" width="235.636" height="147.492" viewBox="0 0 235.636 147.492"><defs><style>.a{opacity:0.5;}.b{fill:#fff;}.c{fill:#fd951f;}</style></defs><g class="a" transform="translate(70.674 139.039)"><g transform="translate(0 0)"><path class="b" d="M15.016-3.191v-8.228H17.9a3.784,3.784,0,0,1,2.272.574,1.961,1.961,0,0,1,.774,1.681A1.859,1.859,0,0,1,20.632-8.1a1.8,1.8,0,0,1-.865.675,1.737,1.737,0,0,1,1,.639,1.888,1.888,0,0,1,.364,1.175,2.171,2.171,0,0,1-.757,1.8,3.409,3.409,0,0,1-2.159.622Zm1.7-3.583v2.221h1.452a1.4,1.4,0,0,0,.935-.285.979.979,0,0,0,.336-.788,1.033,1.033,0,0,0-1.17-1.147Zm0-1.2h1.254q1.283-.023,1.283-1.023a.945.945,0,0,0-.325-.805,1.709,1.709,0,0,0-1.026-.246H16.711Zm17.148.853a4.967,4.967,0,0,1-.429,2.13A3.234,3.234,0,0,1,32.2-3.575a3.4,3.4,0,0,1-1.834.5,3.423,3.423,0,0,1-1.825-.492,3.266,3.266,0,0,1-1.243-1.4,4.825,4.825,0,0,1-.446-2.1V-7.48a4.941,4.941,0,0,1,.438-2.139,3.261,3.261,0,0,1,1.238-1.418,3.4,3.4,0,0,1,1.828-.494,3.4,3.4,0,0,1,1.828.494,3.261,3.261,0,0,1,1.238,1.418,4.927,4.927,0,0,1,.438,2.133Zm-1.718-.373a3.462,3.462,0,0,0-.463-1.966,1.51,1.51,0,0,0-1.322-.672,1.511,1.511,0,0,0-1.317.664,3.423,3.423,0,0,0-.469,1.947v.4a3.506,3.506,0,0,0,.463,1.955,1.506,1.506,0,0,0,1.334.7,1.493,1.493,0,0,0,1.311-.67,3.485,3.485,0,0,0,.463-1.952Zm14.407.373a4.967,4.967,0,0,1-.429,2.13,3.234,3.234,0,0,1-1.229,1.413,3.4,3.4,0,0,1-1.834.5,3.423,3.423,0,0,1-1.825-.492,3.266,3.266,0,0,1-1.243-1.4,4.825,4.825,0,0,1-.446-2.1V-7.48a4.941,4.941,0,0,1,.438-2.139,3.261,3.261,0,0,1,1.238-1.418,3.4,3.4,0,0,1,1.828-.494,3.4,3.4,0,0,1,1.828.494A3.261,3.261,0,0,1,46.11-9.618a4.927,4.927,0,0,1,.438,2.133ZM44.83-7.491a3.462,3.462,0,0,0-.463-1.966,1.51,1.51,0,0,0-1.322-.672,1.511,1.511,0,0,0-1.317.664,3.423,3.423,0,0,0-.469,1.947v.4a3.506,3.506,0,0,0,.463,1.955,1.506,1.506,0,0,0,1.334.7,1.493,1.493,0,0,0,1.311-.67A3.485,3.485,0,0,0,44.83-7.09Zm13.362-2.554h-2.52v6.854h-1.7v-6.854H51.49v-1.373h6.7ZM70.158-5.931a2.911,2.911,0,0,1-.98,2.091,3.443,3.443,0,0,1-2.331.763,3.1,3.1,0,0,1-2.489-1.065,4.368,4.368,0,0,1-.907-2.924v-.5a4.932,4.932,0,0,1,.418-2.091,3.134,3.134,0,0,1,1.2-1.387,3.348,3.348,0,0,1,1.805-.483,3.354,3.354,0,0,1,2.294.763,3.129,3.129,0,0,1,1.006,2.142h-1.7a1.718,1.718,0,0,0-.444-1.156,1.643,1.643,0,0,0-1.161-.359,1.44,1.44,0,0,0-1.269.607,3.4,3.4,0,0,0-.432,1.885v.622a3.644,3.644,0,0,0,.4,1.95,1.414,1.414,0,0,0,1.274.616,1.674,1.674,0,0,0,1.173-.359,1.621,1.621,0,0,0,.444-1.11ZM80.615-4.886H77.643l-.565,1.7h-1.8l3.063-8.228h1.571l3.08,8.228h-1.8ZM78.1-6.259h2.057l-1.034-3.08Zm12.571-5.159,2.113,5.967,2.1-5.967h2.226v8.228h-1.7V-5.44l.17-3.882L93.361-3.191H92.2L89.982-9.316l.17,3.876v2.249h-1.7v-8.228ZM104.988-6.09v2.9h-1.7v-8.228h3.21a3.713,3.713,0,0,1,1.63.339,2.5,2.5,0,0,1,1.082.963,2.686,2.686,0,0,1,.379,1.421,2.362,2.362,0,0,1-.828,1.907,3.448,3.448,0,0,1-2.291.7Zm0-1.373H106.5a1.489,1.489,0,0,0,1.026-.316,1.151,1.151,0,0,0,.353-.9,1.357,1.357,0,0,0-.356-.978,1.33,1.33,0,0,0-.983-.384h-1.554Z" transform="translate(-15.016 11.531)"/></g></g><g transform="translate(86.439 0)"><path class="c" d="M31.078,71.095a2.182,2.182,0,0,1-.66-.1l-24.28-7.7a2.174,2.174,0,0,1-1.517-1.911L.007,2.354A2.184,2.184,0,0,1,2.184,0H59.972a2.184,2.184,0,0,1,2.177,2.354l-4.614,59.03a2.172,2.172,0,0,1-1.517,1.911l-24.28,7.7A2.178,2.178,0,0,1,31.078,71.095ZM20.7,42.537a.735.735,0,0,0-.24.04l-.116.058a2.916,2.916,0,0,0-1.911,2.026l-2.374,8.685a.257.257,0,0,0,.232.348.387.387,0,0,0,.064.005.43.43,0,0,0,.225-.063l6.6-6.08a3.169,3.169,0,0,0,.926-2.605l-.173-.174a.834.834,0,0,0-.4-.579,5.575,5.575,0,0,1-1.216-.694,11.942,11.942,0,0,1-1.158-.81A.742.742,0,0,0,20.7,42.537Zm.1-7.509a.11.11,0,0,0-.035.006.113.113,0,0,0-.071.075v.058a2.6,2.6,0,0,1-.058.694.349.349,0,0,0,.058.232l1.1,1.795a.806.806,0,0,1,.116.637l-.752,3.011c-.052.1-.014.218.116.348a8.763,8.763,0,0,0,1.505,1.042,8.747,8.747,0,0,0,1.621.868.268.268,0,0,0,.139.039.272.272,0,0,0,.208-.1l2.316-2.084a.7.7,0,0,1,.579-.174l2.085.174.035,0a.35.35,0,0,0,.2-.06l.637-.347a.378.378,0,0,1-.032-.133c-.007-.065-.013-.122-.083-.157-.909-.569-4.768-2.93-4.806-2.954l-.005,0c-.4-.244-3.925-2.4-4.8-2.949A.113.113,0,0,0,20.794,35.028Zm12.313-1.02a.954.954,0,0,1,.55.174l3.532,2.142a.427.427,0,0,0,.183.039.237.237,0,0,0,.223-.1l8.684-11.811a1.155,1.155,0,0,0,.306-1.032.794.794,0,0,0-.537-.473h-.058l-2.085-.29c-.058,0-.058,0-.115-.058a.218.218,0,0,1-.058-.347c.742-.971,2.816-3.793,2.837-3.821a.493.493,0,0,0,0-.753,1.181,1.181,0,0,0-.463-.231L42,16.812a1.046,1.046,0,0,0-.985.4l-2.2,3.012a1,1,0,0,0,.174,1.389.039.039,0,0,1,.04.021c.01.023-.006.061-.04.1,0,0-.027.026-.043.026a.012.012,0,0,1-.011-.006.037.037,0,0,1,0-.02l-1.1-.173L36.2,21.386a1.16,1.16,0,0,0-1.1.463L28.56,30.766a.221.221,0,0,1-.159.117l-.036,0a.216.216,0,0,1-.152-.062L21.961,27a.843.843,0,0,0-1.157.29.946.946,0,0,0,.347,1.216l.174.116a.3.3,0,0,1,.115.232l-.173,1.273a.131.131,0,0,1-.118.138.077.077,0,0,1-.056-.023h-.058l-.926-.521a1.532,1.532,0,0,0-2.142.521,1.384,1.384,0,0,0,.174,1.969,2.311,2.311,0,0,1,.231.174l4.691,2.894a4.256,4.256,0,0,0,5.035-.173,2.032,2.032,0,0,1,1.213-.546,1.7,1.7,0,0,1,.929.314,1.053,1.053,0,0,0,1.159,0l1.158-.695A.952.952,0,0,1,33.106,34.007Z" transform="translate(0 0)"/></g><path class="b" d="M-208.844-32.5h13.527v5.118h-19.9V-58.3h6.371Zm30.092,5.118a6.817,6.817,0,0,1-.616-2.06,7.426,7.426,0,0,1-5.8,2.485,8.158,8.158,0,0,1-5.6-1.954,6.283,6.283,0,0,1-2.219-4.927,6.493,6.493,0,0,1,2.708-5.606q2.708-1.954,7.826-1.975h2.824v-1.317a3.786,3.786,0,0,0-.818-2.548,3.216,3.216,0,0,0-2.58-.956,3.657,3.657,0,0,0-2.432.743,2.525,2.525,0,0,0-.881,2.039h-6.137a6.165,6.165,0,0,1,1.232-3.7,8.142,8.142,0,0,1,3.483-2.665,12.693,12.693,0,0,1,5.054-.966,10.028,10.028,0,0,1,6.742,2.134,7.466,7.466,0,0,1,2.5,6v9.96a10.985,10.985,0,0,0,.913,4.948v.361Zm-5.075-4.268a5.286,5.286,0,0,0,2.506-.605,3.975,3.975,0,0,0,1.7-1.625v-3.95h-2.294q-4.608,0-4.906,3.185l-.021.361a2.457,2.457,0,0,0,.807,1.89A3.135,3.135,0,0,0-183.828-31.65Zm28.839,1.932a7.7,7.7,0,0,1-6.286,2.761,7.259,7.259,0,0,1-5.638-2.124Q-168.856-31.2-168.9-35.3V-50.359h6.137v14.844q0,3.589,3.27,3.589,3.122,0,4.29-2.166V-50.359h6.158v22.977h-5.776Zm16.224-20.642.191,2.655a8.022,8.022,0,0,1,6.6-3.079,6.667,6.667,0,0,1,5.436,2.145q1.784,2.145,1.826,6.413v14.844h-6.137v-14.7a3.982,3.982,0,0,0-.849-2.835,3.8,3.8,0,0,0-2.824-.881,4.222,4.222,0,0,0-3.886,2.209v16.2h-6.137V-50.359ZM-110.5-31.9a4.025,4.025,0,0,0,2.761-.934,3.274,3.274,0,0,0,1.1-2.485h5.755a7.872,7.872,0,0,1-1.274,4.279,8.408,8.408,0,0,1-3.43,3.016,10.734,10.734,0,0,1-4.81,1.072,9.975,9.975,0,0,1-7.772-3.132q-2.846-3.132-2.846-8.654v-.4a12.253,12.253,0,0,1,2.824-8.473,9.859,9.859,0,0,1,7.751-3.164,9.665,9.665,0,0,1,6.912,2.453,8.684,8.684,0,0,1,2.644,6.53h-5.755a4.183,4.183,0,0,0-1.1-2.9,3.692,3.692,0,0,0-2.8-1.115,3.7,3.7,0,0,0-3.239,1.561q-1.094,1.561-1.094,5.065v.637q0,3.546,1.083,5.1A3.745,3.745,0,0,0-110.5-31.9Zm19.113-15.948a7.66,7.66,0,0,1,6.137-2.931q7.475,0,7.581,8.686v14.717h-6.137V-41.928a4.269,4.269,0,0,0-.849-2.92,3.642,3.642,0,0,0-2.824-.945,4.177,4.177,0,0,0-3.907,2.081v16.331h-6.137V-60h6.137Zm18.752,20.472V-58.3h10.83q5.628,0,8.537,2.155a7.37,7.37,0,0,1,2.909,6.318,6.986,6.986,0,0,1-1.168,4,6.747,6.747,0,0,1-3.249,2.538,6.528,6.528,0,0,1,3.748,2.4,7.094,7.094,0,0,1,1.37,4.417A8.16,8.16,0,0,1-52.5-29.717q-2.846,2.294-8.112,2.336Zm6.371-13.464V-32.5h5.458a5.267,5.267,0,0,0,3.515-1.072,3.678,3.678,0,0,0,1.264-2.962q0-4.247-4.4-4.311Zm0-4.5h4.714q4.821-.085,4.821-3.844a3.552,3.552,0,0,0-1.221-3.026,6.423,6.423,0,0,0-3.854-.924h-4.46Zm34.3,17.966a6.815,6.815,0,0,1-.616-2.06,7.426,7.426,0,0,1-5.8,2.485,8.158,8.158,0,0,1-5.6-1.954A6.283,6.283,0,0,1-46.2-33.837a6.493,6.493,0,0,1,2.708-5.606q2.708-1.954,7.826-1.975h2.824v-1.317a3.786,3.786,0,0,0-.818-2.548,3.216,3.216,0,0,0-2.58-.956,3.657,3.657,0,0,0-2.432.743,2.525,2.525,0,0,0-.881,2.039h-6.137a6.165,6.165,0,0,1,1.232-3.7,8.142,8.142,0,0,1,3.483-2.665,12.693,12.693,0,0,1,5.054-.966,10.028,10.028,0,0,1,6.742,2.134,7.466,7.466,0,0,1,2.5,6v9.96a10.985,10.985,0,0,0,.913,4.948v.361Zm-5.075-4.268a5.286,5.286,0,0,0,2.506-.605,3.975,3.975,0,0,0,1.7-1.625v-3.95h-2.294q-4.608,0-4.906,3.185l-.021.361a2.457,2.457,0,0,0,.807,1.89A3.135,3.135,0,0,0-37.044-31.65Zm27.522-2.081A1.977,1.977,0,0,0-10.637-35.5a12.664,12.664,0,0,0-3.578-1.157q-8.2-1.72-8.2-6.965a6.314,6.314,0,0,1,2.538-5.107,10.237,10.237,0,0,1,6.636-2.049,11.018,11.018,0,0,1,7,2.06,6.492,6.492,0,0,1,2.623,5.352H-9.755a2.97,2.97,0,0,0-.849-2.177,3.6,3.6,0,0,0-2.655-.86,3.673,3.673,0,0,0-2.4.7,2.212,2.212,0,0,0-.849,1.784,1.891,1.891,0,0,0,.966,1.646,9.94,9.94,0,0,0,3.26,1.083,26.625,26.625,0,0,1,3.865,1.03q4.863,1.784,4.863,6.18a5.994,5.994,0,0,1-2.7,5.086,11.634,11.634,0,0,1-6.965,1.943,12.151,12.151,0,0,1-5.129-1.03,8.6,8.6,0,0,1-3.515-2.824,6.563,6.563,0,0,1-1.274-3.876h5.819a3.2,3.2,0,0,0,1.21,2.506,4.8,4.8,0,0,0,3.016.871,4.444,4.444,0,0,0,2.665-.669A2.081,2.081,0,0,0-9.522-33.731Zm20.493,6.774a11.28,11.28,0,0,1-8.229-3.1A11.021,11.021,0,0,1-.433-38.318v-.595A13.88,13.88,0,0,1,.905-45.1a9.819,9.819,0,0,1,3.791-4.2,10.639,10.639,0,0,1,5.6-1.476,9.536,9.536,0,0,1,7.422,2.973q2.708,2.973,2.708,8.431v2.506H5.79a5.7,5.7,0,0,0,1.794,3.61A5.424,5.424,0,0,0,11.375-31.9a6.624,6.624,0,0,0,5.543-2.57L19.933-31.1A9.213,9.213,0,0,1,16.2-28.05,12.262,12.262,0,0,1,10.971-26.957Zm-.7-18.858a3.843,3.843,0,0,0-2.962,1.232,6.363,6.363,0,0,0-1.455,3.525H14.39v-.488a4.537,4.537,0,0,0-1.1-3.154A3.966,3.966,0,0,0,10.27-45.814Z" transform="translate(215.215 151.494)"/></svg>