<svg xmlns="http://www.w3.org/2000/svg" width="156.729" height="35.103" viewBox="0 0 156.729 35.103"><defs><style>.a{fill:#fff;}</style></defs><g transform="translate(0.008 -0.001)"><path class="a" d="M111.5,32.755a5.65,5.65,0,0,0,2.313-1.6,4.616,4.616,0,0,0,1.047-3.14c0-3.14-2.095-4.847-5.894-4.847h-6.392a.054.054,0,0,0-.054.055V39.7a.054.054,0,0,0,.056.052h3.306a.054.054,0,0,0,.054-.055v-6.72h1.872l4.022,6.775v0a.054.054,0,0,0,.055.053h3.8c.055-.056.11-.111.055-.111Zm-2.7-2.644h-2.864V26.034H108.8c2.148,0,2.588,1.1,2.588,1.983C111.387,29.449,110.561,30.11,108.8,30.11Z" transform="translate(-61.527 -13.904)"/><path class="a" d="M142.8,34.191a5.777,5.777,0,0,0-5.838,6.114c0,3.69,2.368,6.17,5.838,6.17,3.36,0,5.784-2.644,5.838-6.17C148.634,36.67,146.265,34.191,142.8,34.191Zm0,9.473c-1.652,0-2.7-1.322-2.7-3.359S141.143,37,142.8,37s2.645,1.268,2.7,3.305C145.494,42.4,144.448,43.664,142.8,43.664Z" transform="translate(-82.194 -20.518)"/><path class="a" d="M174.882,34.186a5.585,5.585,0,0,0-4.3,1.817,6.584,6.584,0,0,0-1.543,4.462c0,3.745,2.2,6.059,5.674,6.059,3.086,0,5.068-1.652,5.4-4.516v-.056h-2.863c-.056,0-.056,0-.056.056a2.032,2.032,0,0,1-2.313,1.707c-2.2,0-2.534-2.039-2.534-3.25-.055-1.763.661-3.471,2.534-3.471a2.074,2.074,0,0,1,2.259,1.763.054.054,0,0,0,.052.056h2.922a.054.054,0,0,0,.055-.054v0C179.95,35.838,178.022,34.186,174.882,34.186Z" transform="translate(-101.446 -20.513)"/><path class="a" d="M233.377,34.191c-3.47,0-5.784,2.479-5.784,6.168,0,3.8,2.149,6.115,5.784,6.115a4.912,4.912,0,0,0,5.123-3.967v-.055h-2.978a.054.054,0,0,0-.052.055c-.276.881-.936,1.268-2.093,1.268a2.385,2.385,0,0,1-2.589-2.424h7.991a.054.054,0,0,0,.052-.055,7.1,7.1,0,0,0,.055-1.1C238.885,36.5,236.792,34.191,233.377,34.191Zm-2.534,4.627a2.344,2.344,0,0,1,2.479-1.928,2.234,2.234,0,0,1,2.368,1.928Z" transform="translate(-136.585 -20.518)"/><path class="a" d="M267.261,39.089a.054.054,0,0,0-.052-.055h-1.545c-.88,0-1.157-.22-1.157-1.1V32.369h2.7a.054.054,0,0,0,.055-.052v-2.7a.12.12,0,0,0-.111-.111h-2.7V26.53a.054.054,0,0,0-.052-.055h-2.977a.054.054,0,0,0-.055.052V29.5h-2.039a.054.054,0,0,0-.055.054v2.7a.054.054,0,0,0,.052.055h2.042v6.28c0,2.643,1.487,3.195,3.8,3.195h2.039a.054.054,0,0,0,.055-.054V39.089Z" transform="translate(-155.597 -15.887)"/><path class="a" d="M289.706,39.138l0,0-2.534-.825c-.937-.331-1.1-.551-1.1-.936s.165-.88,1.543-.88c1.1,0,1.763.44,1.763,1.211a.054.054,0,0,0,.052.056h2.922a.054.054,0,0,0,.055-.054v0a3.4,3.4,0,0,0-1.487-2.974,5.807,5.807,0,0,0-3.306-.827c-2.313,0-4.792.992-4.847,3.691,0,2.093,1.542,2.864,3.084,3.3l1.928.607c1.377.44,1.763.605,1.763,1.156,0,.607-.331.992-1.928.992-1.267,0-1.928-.5-2.039-1.432a.054.054,0,0,0-.054-.055H282.6a.054.054,0,0,0-.056.052v0c0,3.306,2.755,4.021,5.123,4.021a6.882,6.882,0,0,0,3.471-.827,3.259,3.259,0,0,0,1.6-2.975C292.736,40.516,291.524,39.745,289.706,39.138Z" transform="translate(-169.562 -20.342)"/><path class="a" d="M316.577,34.191c-3.471,0-5.784,2.479-5.784,6.168,0,3.8,2.148,6.115,5.784,6.115a4.953,4.953,0,0,0,5.123-3.967v-.055h-2.977a.054.054,0,0,0-.052.055c-.276.881-.937,1.268-2.093,1.268a2.384,2.384,0,0,1-2.589-2.424h7.989a.054.054,0,0,0,.054-.055,7.108,7.108,0,0,0,.055-1.1C322.086,36.5,319.993,34.191,316.577,34.191Zm-2.59,4.627a2.344,2.344,0,0,1,2.479-1.928,2.167,2.167,0,0,1,2.369,1.928Z" transform="translate(-186.514 -20.518)"/><path class="a" d="M353.605,43.836v0a.054.054,0,0,0-.055-.052h-.275c-.387,0-.607-.222-.607-.661V38.383c0-3.03-1.6-4.462-4.959-4.462-3.084,0-5.067,1.486-5.067,3.8v0a.054.054,0,0,0,.055.054h2.922a.055.055,0,0,0,.054-.056c0-.771.66-1.156,1.928-1.156,1.211,0,1.872.385,1.872,1.1,0,.549-.22.714-1.156.88l-1.984.385q-4.131.743-4.131,3.8c0,2.092,1.543,3.469,3.856,3.469a4.235,4.235,0,0,0,3.691-1.652V44.6l0,.027a1.612,1.612,0,0,0,1.541,1.681h2.259v0c.055,0,.111-.055.055-.111Zm-4.022-2.758a2.646,2.646,0,0,1-2.644,2.644c-.661,0-1.432-.22-1.432-1.212,0-.716.495-1.1,1.707-1.376l1.708-.331a1.263,1.263,0,0,0,.605-.165h.056Z" transform="translate(-205.364 -20.356)"/><path class="a" d="M379.884,39.171h-1.546c-.88,0-1.156-.22-1.156-1.1V32.452h2.645a.054.054,0,0,0,.055-.052V29.7a.054.054,0,0,0-.052-.055h-2.7V26.67a.054.054,0,0,0-.052-.056H374.1a.054.054,0,0,0-.055.054v2.977H372a.054.054,0,0,0-.055.052v2.7a.054.054,0,0,0,.052.055h2.042v6.278c0,2.644,1.487,3.195,3.8,3.195h2.039a.054.054,0,0,0,.055-.052V39.227A.054.054,0,0,0,379.884,39.171Z" transform="translate(-223.215 -15.971)"/><path class="a" d="M211.64,34.3s.056-.055,0-.055a.054.054,0,0,0-.052-.055h-3.8L203.6,38.266V34.245a.054.054,0,0,0-.052-.055h-3.032a.054.054,0,0,0-.056.052V46.361a.055.055,0,0,0,.054.056h2.976a.055.055,0,0,0,.056-.054V42.232l1.047-1.047,3.524,5.234.056.055h3.745a.054.054,0,0,0,.055-.052v-.058l-5.068-7.38Z" transform="translate(-120.302 -20.517)"/><path class="a" d="M20.279,49c-.88-.551-4.571-2.81-4.571-2.81s-3.691-2.259-4.572-2.81a.106.106,0,0,0-.166.056v.055a2.5,2.5,0,0,1-.055.661.332.332,0,0,0,.055.22l1.047,1.708a.763.763,0,0,1,.11.605l-.716,2.864c-.055.111,0,.22.111.331A15.269,15.269,0,0,0,14.5,51.7a.258.258,0,0,0,.331-.055l2.2-1.983a.665.665,0,0,1,.551-.165l1.983.165a.336.336,0,0,0,.221-.055l.605-.331C20.335,49.169,20.39,49.058,20.279,49Z" transform="translate(-6.554 -26.022)"/><path class="a" d="M7.5,63.36a.792.792,0,0,0-.385-.551,5.363,5.363,0,0,1-1.156-.661,11.209,11.209,0,0,1-1.1-.772.7.7,0,0,0-.66-.11l-.111.055a2.784,2.784,0,0,0-1.818,1.928L.01,71.512a.24.24,0,0,0,.133.312.247.247,0,0,0,.087.017.417.417,0,0,0,.276-.055L6.784,66a3.03,3.03,0,0,0,.88-2.479Z" transform="translate(0 -36.742)"/><path class="a" d="M28.621,5.19c.716-.937,2.7-3.636,2.7-3.636a.47.47,0,0,0,.054-.662A.43.43,0,0,0,31.32.838a1.119,1.119,0,0,0-.44-.22L26.969.011A1,1,0,0,0,26.033.4L23.94,3.262a.952.952,0,0,0,.166,1.32c.055,0,.055.056,0,.111,0,0-.055.055-.055,0L23,4.527l-1.543-.166a1.1,1.1,0,0,0-1.047.44L14.19,13.283a.208.208,0,0,1-.279.093.213.213,0,0,1-.052-.037L7.908,9.706a.8.8,0,0,0-1.1.276h0a.9.9,0,0,0,.33,1.156l.165.111a.284.284,0,0,1,.111.22l-.166,1.212c0,.111-.111.165-.165.111H7.029l-.88-.5a1.457,1.457,0,0,0-2.011.449l-.029.047a1.316,1.316,0,0,0,.146,1.855l.02.017a2.207,2.207,0,0,1,.22.165l4.463,2.755a4.052,4.052,0,0,0,4.792-.165,1.537,1.537,0,0,1,2.039-.221,1,1,0,0,0,1.1,0l1.1-.66a.908.908,0,0,1,1.047,0L22.4,18.577c.111.056.331.056.387-.055L31.048,7.285c.658-.883.162-1.325-.224-1.435h-.055l-1.983-.275c-.056,0-.056,0-.111-.055a.208.208,0,0,1-.092-.279A.2.2,0,0,1,28.621,5.19Z" transform="translate(-2.281 0)"/></g></svg>