<svg xmlns="http://www.w3.org/2000/svg" width="168.461" height="47" viewBox="0 0 168.461 47">
  <g id="Group_5255" data-name="Group 5255" transform="translate(0 0.246)">
    <g id="Group_5252" data-name="Group 5252" transform="translate(66.141 2.295)">
      <g id="Group_5134" data-name="Group 5134">
        <g id="Group_4819" data-name="Group 4819" transform="translate(23.849 35.912)" opacity="0.5">
          <path id="Path_14790" data-name="Path 14790" d="M-82.385-4.293a2.264,2.264,0,0,1-.762,1.626,2.678,2.678,0,0,1-1.813.593A2.408,2.408,0,0,1-86.9-2.9,3.4,3.4,0,0,1-87.6-5.177v-.391a3.835,3.835,0,0,1,.325-1.626,2.437,2.437,0,0,1,.929-1.079,2.6,2.6,0,0,1,1.4-.376,2.609,2.609,0,0,1,1.784.593,2.433,2.433,0,0,1,.782,1.666h-1.318a1.336,1.336,0,0,0-.345-.9,1.277,1.277,0,0,0-.9-.279,1.12,1.12,0,0,0-.987.472,2.648,2.648,0,0,0-.336,1.466v.483a2.834,2.834,0,0,0,.314,1.516,1.1,1.1,0,0,0,.991.479,1.3,1.3,0,0,0,.912-.279,1.26,1.26,0,0,0,.345-.864Zm9.793-4.267v4.214a2.158,2.158,0,0,1-.657,1.661,2.533,2.533,0,0,1-1.8.611,2.561,2.561,0,0,1-1.78-.593A2.121,2.121,0,0,1-77.5-4.3V-8.561h1.318v4.223a1.219,1.219,0,0,0,.3.916,1.156,1.156,0,0,0,.833.288q1.112,0,1.129-1.169V-8.561ZM-65.058-4.5h-1.05v2.342h-1.318v-6.4h2.377a2.688,2.688,0,0,1,1.749.505,1.744,1.744,0,0,1,.615,1.428,1.968,1.968,0,0,1-.283,1.092,1.933,1.933,0,0,1-.859.7l1.384,2.615v.062h-1.415Zm-1.05-1.068h1.063a1.089,1.089,0,0,0,.769-.253.9.9,0,0,0,.272-.7.967.967,0,0,0-.257-.712,1.068,1.068,0,0,0-.789-.259h-1.059Zm11.827,1.731a.677.677,0,0,0-.264-.573,3.458,3.458,0,0,0-.949-.422,6.729,6.729,0,0,1-1.085-.437,1.774,1.774,0,0,1-1.09-1.586,1.545,1.545,0,0,1,.292-.925,1.906,1.906,0,0,1,.839-.635,3.159,3.159,0,0,1,1.228-.229,2.876,2.876,0,0,1,1.222.248,1.945,1.945,0,0,1,.833.7,1.834,1.834,0,0,1,.3,1.028h-1.318a.863.863,0,0,0-.277-.683,1.138,1.138,0,0,0-.778-.244,1.216,1.216,0,0,0-.751.2.645.645,0,0,0-.268.538.617.617,0,0,0,.314.523,3.55,3.55,0,0,0,.925.4,4,4,0,0,1,1.639.839,1.672,1.672,0,0,1,.514,1.248,1.54,1.54,0,0,1-.628,1.3,2.751,2.751,0,0,1-1.692.472,3.267,3.267,0,0,1-1.345-.27,2.128,2.128,0,0,1-.925-.74,1.9,1.9,0,0,1-.319-1.09h1.323q0,1.059,1.266,1.059a1.231,1.231,0,0,0,.734-.191A.622.622,0,0,0-54.281-3.841Zm11.555-1.376a3.863,3.863,0,0,1-.334,1.657,2.515,2.515,0,0,1-.956,1.1,2.644,2.644,0,0,1-1.426.387,2.662,2.662,0,0,1-1.419-.382,2.54,2.54,0,0,1-.967-1.092,3.752,3.752,0,0,1-.347-1.633V-5.5a3.842,3.842,0,0,1,.341-1.663,2.536,2.536,0,0,1,.962-1.1,2.647,2.647,0,0,1,1.422-.385,2.647,2.647,0,0,1,1.422.385,2.536,2.536,0,0,1,.962,1.1A3.831,3.831,0,0,1-42.726-5.5Zm-1.336-.29a2.693,2.693,0,0,0-.36-1.529,1.174,1.174,0,0,0-1.028-.523,1.175,1.175,0,0,0-1.024.516,2.662,2.662,0,0,0-.365,1.514v.312a2.726,2.726,0,0,0,.36,1.521,1.171,1.171,0,0,0,1.037.541,1.161,1.161,0,0,0,1.02-.521,2.711,2.711,0,0,0,.36-1.518Zm9.7,1.666a.677.677,0,0,0-.264-.573,3.458,3.458,0,0,0-.949-.422,6.729,6.729,0,0,1-1.085-.437,1.774,1.774,0,0,1-1.09-1.586,1.545,1.545,0,0,1,.292-.925,1.906,1.906,0,0,1,.839-.635,3.159,3.159,0,0,1,1.228-.229,2.876,2.876,0,0,1,1.222.248,1.945,1.945,0,0,1,.833.7,1.834,1.834,0,0,1,.3,1.028h-1.318a.863.863,0,0,0-.277-.683,1.138,1.138,0,0,0-.778-.244,1.216,1.216,0,0,0-.751.2.645.645,0,0,0-.268.538.617.617,0,0,0,.314.523,3.55,3.55,0,0,0,.925.4,4,4,0,0,1,1.639.839,1.672,1.672,0,0,1,.514,1.248,1.54,1.54,0,0,1-.628,1.3,2.751,2.751,0,0,1-1.692.472,3.267,3.267,0,0,1-1.345-.27,2.128,2.128,0,0,1-.925-.74,1.9,1.9,0,0,1-.319-1.09h1.323q0,1.059,1.266,1.059a1.231,1.231,0,0,0,.734-.191A.622.622,0,0,0-34.366-3.841Z" transform="translate(87.602 8.648)" fill="#fff"/>
        </g>
        <path id="Path_14813" data-name="Path 14813" d="M-108.894-39.886a2.5,2.5,0,0,0-.975-2.12,12.783,12.783,0,0,0-3.509-1.559,24.872,24.872,0,0,1-4.012-1.616q-4.028-2.177-4.028-5.864a5.711,5.711,0,0,1,1.08-3.419,7.046,7.046,0,0,1,3.1-2.347,11.678,11.678,0,0,1,4.54-.845,10.629,10.629,0,0,1,4.516.918,7.19,7.19,0,0,1,3.078,2.591,6.779,6.779,0,0,1,1.1,3.8h-4.873a3.189,3.189,0,0,0-1.023-2.526,4.207,4.207,0,0,0-2.875-.9,4.494,4.494,0,0,0-2.778.755,2.382,2.382,0,0,0-.991,1.99,2.282,2.282,0,0,0,1.161,1.933,13.122,13.122,0,0,0,3.419,1.462,14.774,14.774,0,0,1,6.059,3.1,6.179,6.179,0,0,1,1.9,4.613,5.692,5.692,0,0,1-2.323,4.816,10.169,10.169,0,0,1-6.254,1.746,12.076,12.076,0,0,1-4.971-1,7.866,7.866,0,0,1-3.419-2.737,7.009,7.009,0,0,1-1.178-4.028h4.889q0,3.915,4.678,3.915a4.551,4.551,0,0,0,2.713-.707A2.3,2.3,0,0,0-108.894-39.886Zm13.5-15.692v4.321h3.005v3.444h-3.005v8.772a2.1,2.1,0,0,0,.374,1.4,1.876,1.876,0,0,0,1.429.422,7.486,7.486,0,0,0,1.381-.114v3.557a9.664,9.664,0,0,1-2.843.422q-4.938,0-5.036-4.987v-9.47h-2.567v-3.444h2.567v-4.321Zm15.805,21.9a5.213,5.213,0,0,1-.471-1.576,5.68,5.68,0,0,1-4.435,1.9,6.24,6.24,0,0,1-4.28-1.494,4.806,4.806,0,0,1-1.7-3.769A4.967,4.967,0,0,1-88.4-42.907a10.22,10.22,0,0,1,5.986-1.511h2.16v-1.007a2.9,2.9,0,0,0-.625-1.949,2.46,2.46,0,0,0-1.974-.731,2.8,2.8,0,0,0-1.86.569,1.931,1.931,0,0,0-.674,1.559h-4.694a4.716,4.716,0,0,1,.942-2.826,6.228,6.228,0,0,1,2.664-2.039,9.709,9.709,0,0,1,3.866-.739,7.671,7.671,0,0,1,5.157,1.633,5.711,5.711,0,0,1,1.909,4.589v7.618a8.4,8.4,0,0,0,.7,3.785v.276Zm-3.882-3.265a4.043,4.043,0,0,0,1.917-.463,3.041,3.041,0,0,0,1.3-1.243v-3.021H-82.01q-3.525,0-3.752,2.437l-.016.276a1.879,1.879,0,0,0,.617,1.446A2.4,2.4,0,0,0-83.472-36.945Zm21.409-9.909a12.753,12.753,0,0,0-1.689-.13q-2.664,0-3.492,1.8v11.5h-4.694V-51.256H-67.5l.13,2.1a4.35,4.35,0,0,1,3.915-2.42A4.919,4.919,0,0,1-62-51.37Zm8.69-8.723v4.321h3.005v3.444h-3.005v8.772a2.1,2.1,0,0,0,.374,1.4,1.876,1.876,0,0,0,1.429.422,7.486,7.486,0,0,0,1.381-.114v3.557a9.664,9.664,0,0,1-2.843.422q-4.938,0-5.036-4.987v-9.47h-2.567v-3.444h2.567v-4.321Zm13.71,22.222a8.628,8.628,0,0,1-6.294-2.372,8.43,8.43,0,0,1-2.428-6.319V-42.5a10.617,10.617,0,0,1,1.023-4.735,7.51,7.51,0,0,1,2.9-3.216,8.138,8.138,0,0,1,4.28-1.129,7.294,7.294,0,0,1,5.677,2.274,9.241,9.241,0,0,1,2.071,6.449v1.917H-43.626a4.361,4.361,0,0,0,1.373,2.761,4.149,4.149,0,0,0,2.9,1.04,5.067,5.067,0,0,0,4.24-1.965l2.307,2.583a7.047,7.047,0,0,1-2.859,2.331A9.38,9.38,0,0,1-39.662-33.356ZM-40.2-47.78a2.94,2.94,0,0,0-2.266.942,4.867,4.867,0,0,0-1.113,2.7h6.53v-.374a3.47,3.47,0,0,0-.845-2.412A3.034,3.034,0,0,0-40.2-47.78Zm20.3.926a12.753,12.753,0,0,0-1.689-.13q-2.664,0-3.492,1.8v11.5H-29.77V-51.256h4.435l.13,2.1a4.35,4.35,0,0,1,3.915-2.42,4.919,4.919,0,0,1,1.462.211Z" transform="translate(122.148 57.656)" fill="#fff"/>
      </g>
    </g>
    <path id="Subtraction_27" data-name="Subtraction 27" d="M39,47H8a8.009,8.009,0,0,1-8-8V8A8.009,8.009,0,0,1,8,0H39a8.009,8.009,0,0,1,8,8V39A8.009,8.009,0,0,1,39,47ZM14.453,29.808a.363.363,0,0,0-.166.036l-.085.085a2.373,2.373,0,0,0-1.52,1.715l-1.943,7.2a.15.15,0,0,0-.02.164.132.132,0,0,0,.1.093h.085a.311.311,0,0,0,.254-.085l5.405-5.059a2.444,2.444,0,0,0,.76-2.058l-.169-.171a.579.579,0,0,0-.337-.515,6.223,6.223,0,0,1-1.014-.6c-.169-.129-.319-.237-.464-.343s-.3-.214-.465-.343A1.034,1.034,0,0,0,14.453,29.808Zm.234-6.091c-.025,0-.061.036-.063.038v.086a1.609,1.609,0,0,1-.048.362,1.136,1.136,0,0,0-.035.239.114.114,0,0,0,.042.086.111.111,0,0,1,.042.085l.93,1.458a.575.575,0,0,1,.085.514l-.591,2.487c-.085.086,0,.173.085.257a12.589,12.589,0,0,0,2.534,1.544h.007a.3.3,0,0,0,.246-.085l1.858-1.715a.62.62,0,0,1,.508-.171l1.689.171a.109.109,0,0,0,.084-.043.11.11,0,0,1,.085-.043h.591a.318.318,0,0,0-.085-.257c-.756-.512-3.938-2.467-3.97-2.487s-3.223-1.981-3.97-2.487a.048.048,0,0,0-.009-.033A.018.018,0,0,0,14.687,23.718Zm10.063-.862a.754.754,0,0,1,.432.129l2.872,1.8h.01a.494.494,0,0,0,.329-.085l7.095-9.775a.963.963,0,0,0,.264-.9.619.619,0,0,0-.432-.384h-.085l-1.689-.257-.085-.085c-.07-.036-.109-.069-.106-.081s0,0,.01,0a1.169,1.169,0,0,1,.348.172v-.086c.584-.848,2.264-3.149,2.281-3.172a.427.427,0,0,0,.085-.6l-.085-.086a.435.435,0,0,0-.338-.171L32.278,8.75a.984.984,0,0,0-.845.343L29.66,11.579a.817.817,0,0,0,.168,1.115c.039,0,.06,0,.063.008s-.017.031-.063.077c0,0-.038.038-.063.038a.018.018,0,0,1-.016-.008.055.055,0,0,1-.006-.03l-.929-.172-1.352-.171a.756.756,0,0,0-.185-.022.936.936,0,0,0-.743.365l-5.321,7.375c-.059.06-.12.121-.179.121a.1.1,0,0,1-.074-.035h-.085l-5.153-3.173a.787.787,0,0,0-.354-.086.621.621,0,0,0-.575.343.8.8,0,0,0,.254,1.029l.168.086c.085,0,.085.083.085.172l-.168,1.029c0,.057-.04.121-.1.121a.1.1,0,0,1-.072-.036h-.085l-.76-.428a1.076,1.076,0,0,0-.607-.175,1.247,1.247,0,0,0-1.082.6,1.13,1.13,0,0,0,.085,1.63l.169.171,3.8,2.4a3.458,3.458,0,0,0,1.945.593,3.53,3.53,0,0,0,2.194-.764,1.447,1.447,0,0,1,1.015-.446,1.157,1.157,0,0,1,.758.275.907.907,0,0,0,.93,0l.929-.6A1.1,1.1,0,0,1,24.75,22.855Z" transform="translate(0 -0.246)" fill="#7159c1"/>
  </g>
</svg>
