<svg xmlns="http://www.w3.org/2000/svg" width="133.766" height="141.901" viewBox="0 0 133.766 141.901"><defs><style>.a{opacity:0.5;}.b{fill:#fff;}.c{fill:#7159c1;}</style></defs><g transform="translate(0)"><g transform="translate(0 87.283)"><g class="a" transform="translate(31.178 46.023)"><path class="b" d="M-80.782-2.955a2.96,2.96,0,0,1-1,2.126,3.5,3.5,0,0,1-2.37.776,3.148,3.148,0,0,1-2.531-1.083A4.441,4.441,0,0,1-87.6-4.11v-.511a5.014,5.014,0,0,1,.425-2.126,3.186,3.186,0,0,1,1.215-1.41,3.4,3.4,0,0,1,1.836-.491,3.41,3.41,0,0,1,2.333.776A3.181,3.181,0,0,1-80.77-5.7h-1.724a1.747,1.747,0,0,0-.451-1.175,1.67,1.67,0,0,0-1.181-.365,1.464,1.464,0,0,0-1.29.618,3.461,3.461,0,0,0-.44,1.916v.632a3.7,3.7,0,0,0,.411,1.982,1.437,1.437,0,0,0,1.3.626,1.7,1.7,0,0,0,1.192-.365,1.648,1.648,0,0,0,.451-1.129Zm12.8-5.579v5.51a2.821,2.821,0,0,1-.859,2.172,3.311,3.311,0,0,1-2.347.8,3.349,3.349,0,0,1-2.327-.776,2.773,2.773,0,0,1-.879-2.131V-8.534h1.724v5.521a1.594,1.594,0,0,0,.394,1.2,1.511,1.511,0,0,0,1.089.376q1.454,0,1.477-1.528V-8.534Zm9.849,5.3H-59.5V-.168h-1.724V-8.534h3.108a3.514,3.514,0,0,1,2.287.661,2.28,2.28,0,0,1,.8,1.867A2.574,2.574,0,0,1-55.4-4.578a2.527,2.527,0,0,1-1.123.911l1.81,3.418v.08h-1.85Zm-1.373-1.4h1.39a1.424,1.424,0,0,0,1.005-.33,1.181,1.181,0,0,0,.356-.911,1.264,1.264,0,0,0-.336-.931,1.4,1.4,0,0,0-1.031-.339H-59.5Zm15.463,2.264a.884.884,0,0,0-.345-.75,4.521,4.521,0,0,0-1.241-.552,8.8,8.8,0,0,1-1.419-.572A2.319,2.319,0,0,1-48.47-6.31a2.02,2.02,0,0,1,.382-1.209,2.492,2.492,0,0,1,1.1-.83,4.13,4.13,0,0,1,1.606-.3,3.759,3.759,0,0,1,1.6.325,2.543,2.543,0,0,1,1.089.916,2.4,2.4,0,0,1,.388,1.344h-1.724a1.128,1.128,0,0,0-.362-.893,1.488,1.488,0,0,0-1.017-.319,1.59,1.59,0,0,0-.982.267.843.843,0,0,0-.35.7.807.807,0,0,0,.411.684,4.641,4.641,0,0,0,1.209.517,5.225,5.225,0,0,1,2.143,1.1,2.185,2.185,0,0,1,.672,1.632,2.013,2.013,0,0,1-.822,1.7,3.6,3.6,0,0,1-2.212.618A4.271,4.271,0,0,1-47.1-.407a2.782,2.782,0,0,1-1.209-.968A2.479,2.479,0,0,1-48.729-2.8H-47q0,1.385,1.655,1.385a1.61,1.61,0,0,0,.959-.25A.813.813,0,0,0-44.041-2.363Zm15.106-1.8A5.05,5.05,0,0,1-29.371-2,3.288,3.288,0,0,1-30.62-.559a3.457,3.457,0,0,1-1.864.506,3.48,3.48,0,0,1-1.856-.5A3.321,3.321,0,0,1-35.6-1.981a4.905,4.905,0,0,1-.454-2.134v-.414A5.023,5.023,0,0,1-35.613-6.7a3.315,3.315,0,0,1,1.258-1.442,3.461,3.461,0,0,1,1.859-.5,3.461,3.461,0,0,1,1.859.5A3.315,3.315,0,0,1-29.38-6.7a5.009,5.009,0,0,1,.445,2.169Zm-1.747-.379a3.52,3.52,0,0,0-.471-2A1.535,1.535,0,0,0-32.5-7.224a1.536,1.536,0,0,0-1.339.675,3.48,3.48,0,0,0-.477,1.979v.408a3.564,3.564,0,0,0,.471,1.988,1.531,1.531,0,0,0,1.356.707,1.517,1.517,0,0,0,1.333-.681,3.544,3.544,0,0,0,.471-1.985ZM-18-2.363a.884.884,0,0,0-.345-.75,4.521,4.521,0,0,0-1.241-.552,8.8,8.8,0,0,1-1.419-.572A2.319,2.319,0,0,1-22.434-6.31a2.02,2.02,0,0,1,.382-1.209,2.492,2.492,0,0,1,1.1-.83,4.13,4.13,0,0,1,1.606-.3,3.759,3.759,0,0,1,1.6.325,2.543,2.543,0,0,1,1.089.916,2.4,2.4,0,0,1,.388,1.344H-18a1.128,1.128,0,0,0-.362-.893,1.488,1.488,0,0,0-1.017-.319,1.59,1.59,0,0,0-.982.267.843.843,0,0,0-.35.7.807.807,0,0,0,.411.684,4.641,4.641,0,0,0,1.209.517,5.225,5.225,0,0,1,2.143,1.1,2.185,2.185,0,0,1,.672,1.632,2.013,2.013,0,0,1-.822,1.7,3.6,3.6,0,0,1-2.212.618,4.271,4.271,0,0,1-1.758-.353,2.782,2.782,0,0,1-1.209-.968A2.479,2.479,0,0,1-22.693-2.8h1.729q0,1.385,1.655,1.385a1.61,1.61,0,0,0,.959-.25A.813.813,0,0,0-18-2.363Z" transform="translate(87.602 8.648)"/></g><path class="b" d="M-104.82-34.424a3.269,3.269,0,0,0-1.274-2.771,16.712,16.712,0,0,0-4.587-2.039,32.516,32.516,0,0,1-5.245-2.113q-5.267-2.846-5.267-7.666a7.467,7.467,0,0,1,1.412-4.47,9.212,9.212,0,0,1,4.056-3.069,15.267,15.267,0,0,1,5.936-1.1,13.9,13.9,0,0,1,5.9,1.2,9.4,9.4,0,0,1,4.024,3.387A8.863,8.863,0,0,1-98.428-48.1H-104.8a4.169,4.169,0,0,0-1.338-3.3,5.5,5.5,0,0,0-3.759-1.179,5.876,5.876,0,0,0-3.631.987,3.115,3.115,0,0,0-1.3,2.6,2.983,2.983,0,0,0,1.518,2.527,17.155,17.155,0,0,0,4.47,1.911q5.436,1.635,7.921,4.056a8.078,8.078,0,0,1,2.485,6.031,7.441,7.441,0,0,1-3.037,6.3,13.294,13.294,0,0,1-8.176,2.283,15.788,15.788,0,0,1-6.5-1.306,10.283,10.283,0,0,1-4.47-3.578,9.164,9.164,0,0,1-1.54-5.267h6.392q0,5.118,6.116,5.118a5.95,5.95,0,0,0,3.546-.924A3.005,3.005,0,0,0-104.82-34.424Zm17.647-20.514v5.649h3.929v4.5h-3.929V-33.32a2.738,2.738,0,0,0,.488,1.826,2.453,2.453,0,0,0,1.869.552,9.787,9.787,0,0,0,1.805-.149v4.651a12.634,12.634,0,0,1-3.716.552q-6.456,0-6.583-6.519V-44.787h-3.355v-4.5h3.355v-5.649ZM-66.51-26.312a6.815,6.815,0,0,1-.616-2.06,7.426,7.426,0,0,1-5.8,2.485,8.158,8.158,0,0,1-5.6-1.954,6.283,6.283,0,0,1-2.219-4.927,6.493,6.493,0,0,1,2.708-5.606q2.708-1.954,7.826-1.975h2.824v-1.317a3.786,3.786,0,0,0-.818-2.548,3.216,3.216,0,0,0-2.58-.956,3.657,3.657,0,0,0-2.432.743,2.525,2.525,0,0,0-.881,2.039h-6.137A6.165,6.165,0,0,1-79-46.083a8.142,8.142,0,0,1,3.483-2.665,12.693,12.693,0,0,1,5.054-.966,10.028,10.028,0,0,1,6.742,2.134,7.466,7.466,0,0,1,2.5,6v9.96a10.985,10.985,0,0,0,.913,4.948v.361Zm-5.075-4.268a5.286,5.286,0,0,0,2.506-.605,3.975,3.975,0,0,0,1.7-1.625v-3.95h-2.294q-4.608,0-4.906,3.185l-.021.361a2.457,2.457,0,0,0,.807,1.89A3.135,3.135,0,0,0-71.585-30.58ZM-43.6-43.534A16.673,16.673,0,0,0-45.8-43.7q-3.483,0-4.566,2.357v15.035h-6.137V-49.289h5.8l.17,2.739a5.687,5.687,0,0,1,5.118-3.164,6.431,6.431,0,0,1,1.911.276Zm11.361-11.4v5.649h3.929v4.5h-3.929V-33.32a2.738,2.738,0,0,0,.488,1.826,2.453,2.453,0,0,0,1.869.552,9.787,9.787,0,0,0,1.805-.149v4.651a12.634,12.634,0,0,1-3.716.552q-6.456,0-6.583-6.519V-44.787h-3.355v-4.5h3.355v-5.649Zm17.923,29.051a11.28,11.28,0,0,1-8.229-3.1,11.021,11.021,0,0,1-3.175-8.261v-.595a13.88,13.88,0,0,1,1.338-6.19,9.819,9.819,0,0,1,3.791-4.2,10.639,10.639,0,0,1,5.6-1.476,9.536,9.536,0,0,1,7.422,2.973q2.708,2.973,2.708,8.431V-35.8H-19.493a5.7,5.7,0,0,0,1.794,3.61,5.424,5.424,0,0,0,3.791,1.359A6.624,6.624,0,0,0-8.365-33.4l3.016,3.377a9.213,9.213,0,0,1-3.738,3.047A12.262,12.262,0,0,1-14.311-25.887Zm-.7-18.858a3.843,3.843,0,0,0-2.962,1.232,6.363,6.363,0,0,0-1.455,3.525h8.537v-.488A4.537,4.537,0,0,0-12-43.63,3.966,3.966,0,0,0-15.012-44.745Zm26.545,1.21a16.673,16.673,0,0,0-2.209-.17q-3.483,0-4.566,2.357v15.035H-1.379V-49.289h5.8l.17,2.739a5.687,5.687,0,0,1,5.118-3.164,6.431,6.431,0,0,1,1.911.276Z" transform="translate(122.148 57.656)"/></g><path class="c" d="M53.2,61.2H8a8.009,8.009,0,0,1-8-8V8A8.009,8.009,0,0,1,8,0H53.2a8.009,8.009,0,0,1,8,8V53.2A8.009,8.009,0,0,1,53.2,61.2ZM18.819,38.235a.482.482,0,0,0-.216.045l-.11.11a3.058,3.058,0,0,0-1.979,2.2l-2.53,9.239a.189.189,0,0,0-.027.208.175.175,0,0,0,.137.121h.11a.4.4,0,0,0,.33-.11l7.039-6.489a3.1,3.1,0,0,0,.99-2.64l-.22-.22a.742.742,0,0,0-.44-.66,8.226,8.226,0,0,1-1.32-.77c-.22-.165-.416-.305-.6-.44s-.385-.275-.6-.44A1.36,1.36,0,0,0,18.819,38.235Zm.305-7.813c-.032,0-.079.047-.081.049v.11a2.017,2.017,0,0,1-.063.463,1.429,1.429,0,0,0-.047.307.143.143,0,0,0,.055.11.143.143,0,0,1,.055.11l1.211,1.87a.731.731,0,0,1,.11.66l-.77,3.19a.129.129,0,0,0-.028.163.724.724,0,0,0,.136.164A16.5,16.5,0,0,0,23,39.6h.009a.394.394,0,0,0,.321-.11l2.419-2.2a.811.811,0,0,1,.66-.221l2.2.221a.143.143,0,0,0,.11-.055.143.143,0,0,1,.11-.055H29.6a.405.405,0,0,0-.11-.33c-.971-.647-5.128-3.164-5.17-3.19s-4.188-2.536-5.17-3.19a.061.061,0,0,0-.011-.042A.023.023,0,0,0,19.124,30.423Zm13.1-1.106a1,1,0,0,1,.564.165l3.74,2.309h.011a.652.652,0,0,0,.429-.11L46.21,19.143a1.226,1.226,0,0,0,.345-1.152.8.8,0,0,0-.565-.5h-.11l-2.2-.329-.11-.11c-.091-.046-.141-.089-.138-.1s.005-.006.013-.006a1.533,1.533,0,0,1,.454.22v-.11c.751-1.073,2.88-3.948,2.97-4.07a.544.544,0,0,0,.11-.771l-.11-.11a.573.573,0,0,0-.44-.22l-4.4-.66a1.29,1.29,0,0,0-1.1.439l-2.31,3.19a1.038,1.038,0,0,0,.221,1.43c.052,0,.077,0,.082.01s-.022.04-.082.1c0,0-.05.049-.082.049a.023.023,0,0,1-.021-.011.071.071,0,0,1-.008-.038l-1.21-.22-1.759-.22a1,1,0,0,0-.241-.028,1.229,1.229,0,0,0-.969.469l-6.928,9.459c-.077.077-.157.156-.234.156a.134.134,0,0,1-.1-.046h-.111l-6.709-4.069a1.038,1.038,0,0,0-.461-.11.811.811,0,0,0-.748.44,1.152,1.152,0,0,0-.083.743.817.817,0,0,0,.412.578l.22.11c.111,0,.111.112.111.22l-.22,1.32a.148.148,0,0,1-.127.155.134.134,0,0,1-.094-.045h-.11l-.99-.55a1.415,1.415,0,0,0-.79-.224,1.974,1.974,0,0,0-1.808,1.86,1.348,1.348,0,0,0,.508,1l.22.221,4.95,3.079A4.549,4.549,0,0,0,24,31.452a4.64,4.64,0,0,0,2.856-.98,1.9,1.9,0,0,1,1.323-.572,1.521,1.521,0,0,1,.987.352,1.19,1.19,0,0,0,1.211,0l1.21-.77A1.447,1.447,0,0,1,32.228,29.317Z" transform="translate(36.664 0)"/></g></svg>